<svg version="1.1" id="Layer_1" xmlns="http://www.w3.org/2000/svg" xmlns:xlink="http://www.w3.org/1999/xlink" x="0px" y="0px"
	 width="100%" viewBox="0 0 200 200" enable-background="new 0 0 200 200" xml:space="preserve">
<path fill="#FEFFFF" opacity="1.000000" stroke="none" 
	d="
M87.000000,201.000000 
	C58.000000,201.000000 29.500004,201.000000 1.000004,201.000000 
	C1.000003,134.333344 1.000003,67.666679 1.000001,1.000013 
	C67.666656,1.000009 134.333313,1.000009 200.999969,1.000004 
	C200.999985,67.666649 200.999985,134.333298 201.000000,200.999969 
	C163.166672,201.000000 125.333336,201.000000 87.000000,201.000000 
M66.493546,139.968796 
	C66.822662,139.638535 67.151779,139.308258 67.906143,138.856018 
	C67.906143,138.856018 68.172722,138.502991 68.813194,138.236267 
	C70.036690,137.213562 71.260193,136.190857 72.979355,135.073029 
	C73.324829,134.733246 73.670303,134.393478 74.555954,133.925659 
	C74.782112,133.643860 75.008270,133.362076 75.875328,132.893951 
	C79.051476,130.538910 82.227615,128.183868 85.596176,125.686150 
	C96.019096,135.223541 106.212021,144.529938 116.378426,153.865189 
	C119.606575,156.829407 123.113388,159.321320 127.474762,156.588104 
	C131.933350,153.793930 131.646820,149.440079 130.203568,145.026154 
	C129.893997,144.079437 129.519302,143.153793 129.217804,142.204712 
	C125.598862,130.812515 122.018303,119.407990 118.355972,108.029785 
	C117.313484,104.790955 117.769775,102.663231 121.050804,100.686195 
	C132.012421,94.081146 142.841553,87.238846 153.464722,80.105171 
	C155.416565,78.794456 157.523148,75.389618 157.096436,73.510406 
	C156.663391,71.603287 153.268356,69.243202 151.021759,69.075600 
	C142.921692,68.471283 134.754791,68.518364 126.621185,68.693451 
	C121.229340,68.809532 115.851242,69.563766 110.346001,70.042862 
	C109.180267,62.770401 108.335342,56.005154 106.882271,49.373150 
	C106.463356,47.461182 104.534943,44.913090 102.858864,44.516907 
	C101.201653,44.125179 98.452408,45.613579 97.135269,47.113926 
	C94.668282,49.924065 92.889694,53.338535 90.250710,56.916790 
	C86.442245,62.739811 82.801270,68.683716 78.733757,74.319786 
	C77.325165,76.271568 75.074127,78.002014 72.833778,78.895264 
	C65.772316,81.710754 58.478733,83.938995 51.380390,86.668617 
	C45.622627,88.882721 45.320152,91.441055 50.069759,95.509354 
	C53.689602,98.609947 57.384750,101.622635 60.985123,104.623360 
	C60.257854,106.348686 59.688328,107.699806 59.027489,109.083061 
	C59.027489,109.083061 59.075264,109.167244 58.611954,109.591431 
	C58.102283,110.728996 57.592613,111.866562 56.851200,113.242371 
	C56.851200,113.242371 56.850231,113.574730 56.327763,114.004913 
	C56.105003,114.637871 55.882240,115.270821 55.252949,116.197945 
	C55.122509,116.674400 54.992065,117.150856 54.350021,118.031326 
	C53.946072,119.013443 53.542122,119.995552 52.909649,121.313911 
	C52.909649,121.313911 52.899246,121.720322 52.457039,122.001747 
	C52.363163,122.325294 52.269283,122.648834 51.841682,123.525803 
	C51.547714,124.318520 51.253742,125.111244 50.491528,126.290611 
	C50.328663,126.860649 50.165802,127.430679 49.563709,128.423584 
	C49.389431,128.994202 49.215157,129.564835 48.574661,130.638046 
	C47.648735,132.935043 46.631931,135.200317 45.816788,137.535980 
	C44.350510,141.737320 41.982204,146.436249 46.849110,149.682541 
	C51.557446,152.823074 54.678600,148.528152 57.999531,146.001221 
	C57.999531,146.001221 57.995022,145.986328 58.518520,145.892578 
	C58.728855,145.621155 58.939190,145.349716 59.056011,145.062592 
	C59.056011,145.062592 59.099930,145.146622 59.748447,144.983353 
	C61.258766,143.746124 62.769081,142.508881 64.177429,141.206131 
	C64.177429,141.206131 64.194305,141.326141 64.774757,141.199219 
	C65.194221,140.807220 65.613678,140.415222 66.001671,139.997772 
	C66.001671,139.997772 66.015778,140.035431 66.493546,139.968796 
z"/>
<path fill="#486392" opacity="1.000000" stroke="none" 
	d="
M52.899246,121.720322 
	C52.899246,121.720322 52.909649,121.313911 53.316132,120.975967 
	C54.102287,119.634445 54.481956,118.630882 54.861626,117.627312 
	C54.992065,117.150856 55.122509,116.674400 55.787910,115.902512 
	C56.498661,114.929626 56.674446,114.252174 56.850235,113.574730 
	C56.850231,113.574730 56.851200,113.242371 57.309212,113.056610 
	C58.203236,111.636307 58.639248,110.401779 59.075264,109.167244 
	C59.075264,109.167244 59.027489,109.083061 59.448589,109.063660 
	C60.610622,110.097023 61.351555,111.149788 62.062199,112.534004 
	C61.322224,114.243202 60.612537,115.620964 59.538303,117.077438 
	C58.835903,118.260941 58.498051,119.365723 58.169510,120.625336 
	C58.178822,120.780174 57.966278,121.006149 57.724792,121.177002 
	C57.325420,121.903793 57.167534,122.459717 57.004059,123.008636 
	C56.998478,123.001633 57.014061,123.004921 56.761295,123.200645 
	C56.395828,123.801170 56.283123,124.205978 56.206570,124.717804 
	C56.242718,124.824821 56.079498,124.981010 55.810852,125.162338 
	C55.383930,125.953156 55.225655,126.562637 55.052719,127.450150 
	C54.741024,128.170654 54.443996,128.613159 53.783318,129.087524 
	C52.688694,130.417160 51.957722,131.714920 51.226753,133.012680 
	C52.392544,133.539032 53.558338,134.065384 54.774368,134.459656 
	C54.824608,134.327591 55.107040,134.317505 55.119339,134.582062 
	C55.303070,134.643814 55.474499,134.440979 55.905144,134.057281 
	C58.704052,132.222290 61.243748,130.568176 64.167740,128.934235 
	C65.303932,128.219620 66.055832,127.484818 66.840500,126.791656 
	C66.873268,126.833298 66.768143,126.846703 67.036514,126.795349 
	C67.524055,126.466141 67.743240,126.188286 67.972748,125.949692 
	C67.983070,125.988945 67.916023,125.943153 68.240807,125.934296 
	C68.978195,125.505630 69.390800,125.085823 69.833862,124.740501 
	C69.864326,124.814987 69.737587,124.715790 70.133057,124.799606 
	C71.640236,123.802635 72.751938,122.721855 74.051971,121.393776 
	C75.173141,120.096222 76.105965,119.045959 77.285385,117.796982 
	C79.022354,116.789650 80.512726,115.981018 82.243164,115.107674 
	C82.483223,115.042961 82.977898,114.992149 83.293655,114.969254 
	C84.025070,114.538208 84.440727,114.130058 84.872940,113.788345 
	C84.889496,113.854790 84.754524,113.831650 85.024536,113.785667 
	C85.520859,113.466370 85.747169,113.193054 86.167374,112.646667 
	C89.254189,110.412788 92.137520,108.437675 95.041756,106.493797 
	C104.318413,100.284744 104.306824,100.292061 102.208900,89.483009 
	C101.957405,88.187271 101.968231,86.840622 101.895859,85.049408 
	C101.265175,82.412132 103.857010,79.195961 99.877228,78.086342 
	C99.901985,78.074821 99.873558,78.123627 99.866776,77.719009 
	C99.497498,75.733910 99.135017,74.153442 98.801468,72.186600 
	C98.129120,67.254166 97.427841,62.708084 96.614426,57.435097 
	C95.172630,58.065853 94.094849,58.537361 92.651337,58.943069 
	C91.798660,58.085388 91.311707,57.293507 90.824753,56.501625 
	C92.889694,53.338535 94.668282,49.924065 97.135269,47.113926 
	C98.452408,45.613579 101.201653,44.125179 102.858864,44.516907 
	C104.534943,44.913090 106.463356,47.461182 106.882271,49.373150 
	C108.335342,56.005154 109.180267,62.770401 110.346001,70.042862 
	C115.851242,69.563766 121.229340,68.809532 126.621185,68.693451 
	C134.754791,68.518364 142.921692,68.471283 151.021759,69.075600 
	C153.268356,69.243202 156.663391,71.603287 157.096436,73.510406 
	C157.523148,75.389618 155.416565,78.794456 153.464722,80.105171 
	C142.841553,87.238846 132.012421,94.081146 121.050804,100.686195 
	C117.769775,102.663231 117.313484,104.790955 118.355972,108.029785 
	C122.018303,119.407990 125.598862,130.812515 129.217804,142.204712 
	C129.519302,143.153793 129.893997,144.079437 130.203568,145.026154 
	C131.646820,149.440079 131.933350,153.793930 127.474762,156.588104 
	C123.113388,159.321320 119.606575,156.829407 116.378426,153.865189 
	C106.212021,144.529938 96.019096,135.223541 85.596176,125.686150 
	C82.227615,128.183868 79.051476,130.538910 75.289490,133.059540 
	C74.474358,133.501328 74.245064,133.777512 74.015778,134.053696 
	C73.670303,134.393478 73.324829,134.733246 72.310112,135.079590 
	C70.484818,136.225098 69.328766,137.364044 68.172714,138.502991 
	C68.172722,138.502991 67.906143,138.856018 67.456436,138.958740 
	C66.676414,139.386139 66.346100,139.710785 66.015778,140.035431 
	C66.015778,140.035431 66.001671,139.997772 65.698639,140.030258 
	C64.995178,140.483887 64.594742,140.905014 64.194305,141.326141 
	C64.194305,141.326141 64.177429,141.206131 63.827740,141.158081 
	C60.316505,140.609360 59.260574,142.392471 59.099930,145.146622 
	C59.099930,145.146622 59.056011,145.062592 58.853302,145.139038 
	C58.432068,145.472427 58.213543,145.729370 57.995022,145.986328 
	C57.995022,145.986328 57.999531,146.001221 57.598549,145.996918 
	C55.543293,146.566437 53.766975,146.921143 52.260521,147.760315 
	C49.256248,149.433884 46.206032,148.197723 46.111805,144.741852 
	C46.046978,142.364365 46.835644,139.952530 47.329182,137.573959 
	C47.845978,135.083298 48.465981,132.614059 49.040878,130.135452 
	C49.215157,129.564835 49.389431,128.994202 50.034081,128.034058 
	C50.656227,127.064354 50.808002,126.484154 50.959770,125.903961 
	C51.253742,125.111244 51.547714,124.318520 52.209953,123.094963 
	C52.685234,122.349525 52.792240,122.034920 52.899246,121.720322 
M114.765518,136.794174 
	C112.176796,128.159592 109.588074,119.525009 106.858749,110.421448 
	C101.083115,114.514214 95.852951,118.220451 90.134567,122.272652 
	C98.778984,129.862457 106.935616,137.023987 115.092247,144.185501 
	C115.504837,143.857498 115.917419,143.529480 116.330002,143.201462 
	C115.879898,141.322540 115.429794,139.443604 114.765518,136.794174 
M114.385994,91.560455 
	C115.291344,91.698509 116.481316,92.278519 117.058418,91.906860 
	C123.463821,87.781731 129.798813,83.544891 136.078857,79.230537 
	C136.848541,78.701782 137.186661,77.544838 137.683243,76.745850 
	C128.806244,76.745850 120.348541,76.745850 111.431580,76.745850 
	C112.473618,82.074570 113.328789,86.447685 114.385994,91.560455 
z"/>
<path fill="#516890" opacity="1.000000" stroke="none" 
	d="
M90.537735,56.709206 
	C91.311707,57.293507 91.798660,58.085388 92.654648,59.293278 
	C89.710213,64.694313 86.396736,69.679344 82.241653,75.930550 
	C88.712128,74.616333 93.742325,73.594650 98.772530,72.572968 
	C99.135017,74.153442 99.497498,75.733910 99.472168,77.725403 
	C93.539162,79.093666 87.951370,79.863914 82.472466,81.112137 
	C80.618095,81.534607 78.403069,82.771965 77.447235,84.314888 
	C73.797050,90.207054 70.592873,96.375519 67.005013,102.831467 
	C72.070892,106.999832 77.036995,111.086113 82.003098,115.172386 
	C80.512726,115.981018 79.022354,116.789650 76.984100,117.649078 
	C72.632111,114.444176 68.827995,111.188484 64.876839,107.806953 
	C63.788593,109.524948 62.940536,110.863754 62.092484,112.202560 
	C61.351555,111.149788 60.610622,110.097023 59.494247,109.047585 
	C59.688328,107.699806 60.257854,106.348686 60.985123,104.623360 
	C57.384750,101.622635 53.689602,98.609947 50.069759,95.509354 
	C45.320152,91.441055 45.622627,88.882721 51.380390,86.668617 
	C58.478733,83.938995 65.772316,81.710754 72.833778,78.895264 
	C75.074127,78.002014 77.325165,76.271568 78.733757,74.319786 
	C82.801270,68.683716 86.442245,62.739811 90.537735,56.709206 
M69.505219,89.921425 
	C70.402161,88.133385 71.299110,86.345345 72.196053,84.557304 
	C71.871292,84.165703 71.546532,83.774094 71.221771,83.382492 
	C64.822166,85.414680 58.422565,87.446869 50.749119,89.883568 
	C55.845345,93.953773 59.631180,96.977409 63.628769,100.170166 
	C65.662140,96.594276 67.380165,93.572975 69.505219,89.921425 
z"/>
<path fill="#516890" opacity="1.000000" stroke="none" 
	d="
M48.807770,130.386749 
	C48.465981,132.614059 47.845978,135.083298 47.329182,137.573959 
	C46.835644,139.952530 46.046978,142.364365 46.111805,144.741852 
	C46.206032,148.197723 49.256248,149.433884 52.260521,147.760315 
	C53.766975,146.921143 55.543293,146.566437 57.591610,145.992340 
	C54.678600,148.528152 51.557446,152.823074 46.849110,149.682541 
	C41.982204,146.436249 44.350510,141.737320 45.816788,137.535980 
	C46.631931,135.200317 47.648735,132.935043 48.807770,130.386749 
z"/>
<path fill="#516890" opacity="1.000000" stroke="none" 
	d="
M59.424187,145.064987 
	C59.260574,142.392471 60.316505,140.609360 63.878723,141.190826 
	C62.769081,142.508881 61.258766,143.746124 59.424187,145.064987 
z"/>
<path fill="#516890" opacity="1.000000" stroke="none" 
	d="
M68.492950,138.369629 
	C69.328766,137.364044 70.484818,136.225098 72.062286,135.127167 
	C71.260193,136.190857 70.036690,137.213562 68.492950,138.369629 
z"/>
<path fill="#516890" opacity="1.000000" stroke="none" 
	d="
M58.843609,109.379333 
	C58.639248,110.401779 58.203236,111.636307 57.425083,112.937485 
	C57.592613,111.866562 58.102283,110.728996 58.843609,109.379333 
z"/>
<path fill="#516890" opacity="1.000000" stroke="none" 
	d="
M54.605824,117.829315 
	C54.481956,118.630882 54.102287,119.634445 53.430397,120.807846 
	C53.542122,119.995552 53.946072,119.013443 54.605824,117.829315 
z"/>
<path fill="#516890" opacity="1.000000" stroke="none" 
	d="
M56.588997,113.789825 
	C56.674446,114.252174 56.498661,114.929626 55.991177,115.755424 
	C55.882240,115.270821 56.105003,114.637871 56.588997,113.789825 
z"/>
<path fill="#516890" opacity="1.000000" stroke="none" 
	d="
M64.484535,141.262680 
	C64.594742,140.905014 64.995178,140.483887 65.714371,140.042999 
	C65.613678,140.415222 65.194221,140.807220 64.484535,141.262680 
z"/>
<path fill="#516890" opacity="1.000000" stroke="none" 
	d="
M66.254669,140.002106 
	C66.346100,139.710785 66.676414,139.386139 67.243820,139.019730 
	C67.151779,139.308258 66.822662,139.638535 66.254669,140.002106 
z"/>
<path fill="#516890" opacity="1.000000" stroke="none" 
	d="
M50.725651,126.097290 
	C50.808002,126.484154 50.656227,127.064354 50.253696,127.822632 
	C50.165802,127.430679 50.328663,126.860649 50.725651,126.097290 
z"/>
<path fill="#516890" opacity="1.000000" stroke="none" 
	d="
M74.285858,133.989685 
	C74.245064,133.777512 74.474358,133.501328 74.969040,133.152710 
	C75.008270,133.362076 74.782112,133.643860 74.285858,133.989685 
z"/>
<path fill="#516890" opacity="1.000000" stroke="none" 
	d="
M52.678143,121.861038 
	C52.792240,122.034920 52.685234,122.349525 52.376816,122.818253 
	C52.269283,122.648834 52.363163,122.325294 52.678143,121.861038 
z"/>
<path fill="#516890" opacity="1.000000" stroke="none" 
	d="
M58.256771,145.939453 
	C58.213543,145.729370 58.432068,145.472427 58.900055,145.146881 
	C58.939190,145.349716 58.728855,145.621155 58.256771,145.939453 
z"/>
<path fill="#FAFCFD" opacity="1.000000" stroke="none" 
	d="
M82.243164,115.107674 
	C77.036995,111.086113 72.070892,106.999832 67.005013,102.831467 
	C70.592873,96.375519 73.797050,90.207054 77.447235,84.314888 
	C78.403069,82.771965 80.618095,81.534607 82.472466,81.112137 
	C87.951370,79.863914 93.539162,79.093666 99.478958,78.130028 
	C99.873558,78.123627 99.901985,78.074821 99.961899,78.458801 
	C100.633698,81.067711 101.245583,83.292641 101.857468,85.517570 
	C101.968231,86.840622 101.957405,88.187271 102.208900,89.483009 
	C104.306824,100.292061 104.318413,100.284744 95.041756,106.493797 
	C92.137520,108.437675 89.254189,110.412788 85.895927,112.692841 
	C85.205223,113.285271 84.979874,113.558456 84.754524,113.831650 
	C84.754524,113.831650 84.889496,113.854790 84.583084,113.851753 
	C83.843750,114.229858 83.410820,114.611008 82.977898,114.992149 
	C82.977898,114.992149 82.483223,115.042961 82.243164,115.107674 
z"/>
<path fill="#F6F9FB" opacity="1.000000" stroke="none" 
	d="
M114.872604,137.179428 
	C115.429794,139.443604 115.879898,141.322540 116.330002,143.201462 
	C115.917419,143.529480 115.504837,143.857498 115.092247,144.185501 
	C106.935616,137.023987 98.778984,129.862457 90.134567,122.272652 
	C95.852951,118.220451 101.083115,114.514214 106.858749,110.421448 
	C109.588074,119.525009 112.176796,128.159592 114.872604,137.179428 
z"/>
<path fill="#F5F9FC" opacity="1.000000" stroke="none" 
	d="
M62.062195,112.534004 
	C62.940536,110.863754 63.788593,109.524948 64.876839,107.806953 
	C68.827995,111.188484 72.632111,114.444176 76.737503,117.847778 
	C76.105965,119.045959 75.173141,120.096222 73.743530,121.510414 
	C72.077019,122.821487 70.907303,123.768639 69.737587,124.715790 
	C69.737587,124.715790 69.864326,124.814987 69.541336,124.804596 
	C68.784233,125.177185 68.350128,125.560165 67.916023,125.943153 
	C67.916023,125.943153 67.983070,125.988945 67.706726,126.009674 
	C67.209641,126.302513 66.988892,126.574608 66.768143,126.846703 
	C66.768143,126.846703 66.873268,126.833298 66.533134,126.869400 
	C65.389816,127.575020 64.586632,128.244553 63.783443,128.914062 
	C61.243748,130.568176 58.704052,132.222290 55.769699,134.068802 
	C55.375042,134.261185 55.107040,134.317505 55.107040,134.317505 
	C55.107040,134.317505 54.824608,134.327591 54.582291,134.193878 
	C54.275639,132.391998 54.211304,130.723816 54.146965,129.055649 
	C54.443996,128.613159 54.741024,128.170654 55.289997,127.243698 
	C55.721127,126.166496 55.900314,125.573753 56.079498,124.981010 
	C56.079498,124.981010 56.242718,124.824821 56.462051,124.522072 
	C56.792274,123.814522 56.903168,123.409721 57.014061,123.004921 
	C57.014061,123.004921 56.998478,123.001633 57.226555,122.819260 
	C57.625183,122.093300 57.795727,121.549721 57.966274,121.006149 
	C57.966278,121.006149 58.178822,120.780174 58.427185,120.407593 
	C59.084644,119.022911 59.493748,118.010818 59.902847,116.998718 
	C60.612537,115.620964 61.322224,114.243202 62.062195,112.534004 
z"/>
<path fill="#F6FAFC" opacity="1.000000" stroke="none" 
	d="
M114.284973,91.190628 
	C113.328789,86.447685 112.473618,82.074570 111.431580,76.745850 
	C120.348541,76.745850 128.806244,76.745850 137.683243,76.745850 
	C137.186661,77.544838 136.848541,78.701782 136.078857,79.230537 
	C129.798813,83.544891 123.463821,87.781731 117.058418,91.906860 
	C116.481316,92.278519 115.291344,91.698509 114.284973,91.190628 
z"/>
<path fill="#F1F6FA" opacity="1.000000" stroke="none" 
	d="
M98.801468,72.186600 
	C93.742325,73.594650 88.712128,74.616333 82.241653,75.930550 
	C86.396736,69.679344 89.710213,64.694313 93.020370,59.359074 
	C94.094849,58.537361 95.172630,58.065853 96.614426,57.435097 
	C97.427841,62.708084 98.129120,67.254166 98.801468,72.186600 
z"/>
<path fill="#516890" opacity="1.000000" stroke="none" 
	d="
M53.783318,129.087524 
	C54.211304,130.723816 54.275639,132.391998 54.532051,134.325958 
	C53.558338,134.065384 52.392544,133.539032 51.226753,133.012680 
	C51.957722,131.714920 52.688694,130.417160 53.783318,129.087524 
z"/>
<path fill="#516890" opacity="1.000000" stroke="none" 
	d="
M101.895859,85.049408 
	C101.245583,83.292641 100.633698,81.067711 99.937134,78.470322 
	C103.857010,79.195961 101.265175,82.412132 101.895859,85.049408 
z"/>
<path fill="#516890" opacity="1.000000" stroke="none" 
	d="
M70.133057,124.799606 
	C70.907303,123.768639 72.077019,122.821487 73.555183,121.757706 
	C72.751938,122.721855 71.640236,123.802635 70.133057,124.799606 
z"/>
<path fill="#516890" opacity="1.000000" stroke="none" 
	d="
M59.538300,117.077438 
	C59.493748,118.010818 59.084644,119.022911 58.417870,120.252762 
	C58.498051,119.365723 58.835903,118.260941 59.538300,117.077438 
z"/>
<path fill="#516890" opacity="1.000000" stroke="none" 
	d="
M64.167740,128.934235 
	C64.586632,128.244553 65.389816,127.575020 66.500366,126.827759 
	C66.055832,127.484818 65.303932,128.219620 64.167740,128.934235 
z"/>
<path fill="#516890" opacity="1.000000" stroke="none" 
	d="
M68.240807,125.934296 
	C68.350128,125.560165 68.784233,125.177185 69.510872,124.730103 
	C69.390800,125.085823 68.978195,125.505630 68.240807,125.934296 
z"/>
<path fill="#516890" opacity="1.000000" stroke="none" 
	d="
M55.810852,125.162338 
	C55.900314,125.573753 55.721127,126.166496 55.304657,126.965683 
	C55.225655,126.562637 55.383930,125.953156 55.810852,125.162338 
z"/>
<path fill="#516890" opacity="1.000000" stroke="none" 
	d="
M57.724792,121.177002 
	C57.795727,121.549721 57.625183,122.093300 57.232140,122.826263 
	C57.167534,122.459717 57.325420,121.903793 57.724792,121.177002 
z"/>
<path fill="#516890" opacity="1.000000" stroke="none" 
	d="
M83.293655,114.969254 
	C83.410820,114.611008 83.843750,114.229858 84.566528,113.785309 
	C84.440727,114.130058 84.025070,114.538208 83.293655,114.969254 
z"/>
<path fill="#516890" opacity="1.000000" stroke="none" 
	d="
M67.036514,126.795349 
	C66.988892,126.574608 67.209641,126.302513 67.696411,125.970421 
	C67.743240,126.188286 67.524055,126.466141 67.036514,126.795349 
z"/>
<path fill="#516890" opacity="1.000000" stroke="none" 
	d="
M55.119339,134.582062 
	C55.107040,134.317505 55.375042,134.261185 55.510487,134.249664 
	C55.474499,134.440979 55.303070,134.643814 55.119339,134.582062 
z"/>
<path fill="#516890" opacity="1.000000" stroke="none" 
	d="
M56.761299,123.200645 
	C56.903168,123.409721 56.792274,123.814522 56.425903,124.415054 
	C56.283123,124.205978 56.395828,123.801170 56.761299,123.200645 
z"/>
<path fill="#516890" opacity="1.000000" stroke="none" 
	d="
M85.024536,113.785667 
	C84.979874,113.558456 85.205223,113.285271 85.702026,112.965912 
	C85.747169,113.193054 85.520859,113.466370 85.024536,113.785667 
z"/>
<path fill="#F4F8FB" opacity="1.000000" stroke="none" 
	d="
M69.301704,90.236542 
	C67.380165,93.572975 65.662140,96.594276 63.628769,100.170166 
	C59.631180,96.977409 55.845345,93.953773 50.749119,89.883568 
	C58.422565,87.446869 64.822166,85.414680 71.221771,83.382492 
	C71.546532,83.774094 71.871292,84.165703 72.196053,84.557304 
	C71.299110,86.345345 70.402161,88.133385 69.301704,90.236542 
z"/>
</svg>